<svg width="26" height="20" viewBox="0 0 26 20" fill="none" xmlns="http://www.w3.org/2000/svg">
<path d="M23.6782 20C24.2626 20 24.7691 19.8111 25.1995 19.438L17.8334 12.2261C17.6567 12.35 17.4854 12.4705 17.3236 12.585C16.7723 12.9827 16.3249 13.293 15.9814 13.5153C15.6379 13.7381 15.1809 13.9653 14.6104 14.1972C14.0395 14.4294 13.5076 14.5451 13.0143 14.5451H12.9854C12.492 14.5451 11.9601 14.4294 11.3893 14.1972C10.8184 13.9653 10.3614 13.7381 10.0182 13.5153C9.67474 13.293 9.22757 12.9827 8.67604 12.585C8.52235 12.4747 8.35189 12.3537 8.16761 12.2242L0.800088 19.438C1.23054 19.8111 1.73727 20 2.32166 20H23.6782Z" fill="#53CBF9"/>
<path d="M1.46554 7.68476C0.914338 7.32499 0.425542 6.91294 0 6.44882V17.4212L6.49246 11.0649C5.1936 10.1771 3.52008 9.05168 1.46554 7.68476Z" fill="#53CBF9"/>
<path d="M24.5491 7.68476C22.573 8.99428 20.8934 10.1216 19.5101 11.0674L26 17.4215V6.44882C25.5839 6.90361 25.1003 7.31538 24.5491 7.68476Z" fill="#53CBF9"/>
<path d="M23.6779 0H2.32143C1.57637 0 1.00355 0.246321 0.602272 0.738454C0.200662 1.23082 0.000187618 1.84657 0.000187618 2.58503C0.000187618 3.18151 0.266228 3.82782 0.798074 4.52412C1.32992 5.22015 1.89585 5.76686 2.49557 6.16454C2.82434 6.39196 3.81581 7.06677 5.46998 8.18876C6.36293 8.79458 7.13948 9.32262 7.8068 9.77829C8.37561 10.1663 8.86615 10.5023 9.27116 10.7812C9.31765 10.8131 9.39077 10.8643 9.48782 10.9323C9.59238 11.0058 9.72469 11.0991 9.88792 11.2145C10.2023 11.437 10.4634 11.617 10.6714 11.7544C10.8791 11.8919 11.1307 12.0455 11.4259 12.216C11.7209 12.3863 11.9991 12.5143 12.2602 12.5995C12.5214 12.6846 12.7632 12.7273 12.9856 12.7273H13.0145C13.2369 12.7273 13.4787 12.6846 13.7399 12.5995C14.001 12.5143 14.279 12.3866 14.5742 12.216C14.8691 12.0455 15.1205 11.8916 15.3288 11.7544C15.5368 11.617 15.7979 11.4371 16.1123 11.2145C16.2752 11.0991 16.4075 11.0057 16.5121 10.9325C16.6092 10.8643 16.6822 10.8134 16.729 10.7812C17.0445 10.5662 17.5362 10.2316 18.1973 9.78222C19.4001 8.964 21.1716 7.75971 23.5191 6.16454C24.2251 5.68174 24.815 5.09912 25.2891 4.41751C25.7623 3.7359 25.9995 3.02092 25.9995 2.27281C25.9995 1.64776 25.7695 1.11293 25.3104 0.667469C24.8509 0.222567 24.3067 0 23.6779 0Z" fill="#53CBF9"/>
</svg>
